<?xml version="1.0" encoding="UTF-8" standalone="no"?>
<!DOCTYPE svg PUBLIC "-//W3C//DTD SVG 1.1//EN" "http://www.w3.org/Graphics/SVG/1.1/DTD/svg11.dtd">
<svg width="100%" height="100%" viewBox="0 0 121 121" version="1.1" xmlns="http://www.w3.org/2000/svg"
     xml:space="preserve"
     style="fill-rule:evenodd;clip-rule:evenodd;stroke-linecap:round;stroke-linejoin:round;stroke-miterlimit:1.5;">
    <rect id="Artboard1" x="0" y="0" width="121" height="121" style="fill:none;"/>
    <g id="Artboard11">
        <g id="green">
            <path d="M100.628,21.122l-0.749,36.727l-42.78,42.78l-36.727,0.749l0.749,-36.727l42.78,-42.78l36.727,-0.749Z" style="fill:#00cb11;stroke:#000;stroke-width:2.18px;"/>
            <path d="M100.628,21.122l-6.406,31.071l-42.779,42.779l-31.071,6.406l6.406,-31.071l42.779,-42.779l31.071,-6.406Z" style="fill:#00cb11;stroke:#000;stroke-width:2.18px;"/>
        </g>
        <g id="blue">
            <path d="M20.372,21.122l36.727,0.749l42.78,42.78l0.749,36.727l-36.727,-0.749l-42.78,-42.78l-0.749,-36.727Z" style="fill:#005adf;stroke:#000;stroke-width:2.18px;"/>
            <path d="M20.372,21.122l31.071,6.406l42.779,42.779l6.406,31.071l-31.071,-6.406l-42.779,-42.779l-6.406,-31.071Z" style="fill:#005adf;stroke:#000;stroke-width:2.18px;"/>
        </g>
        <g id="red">
            <path d="M60.5,4.5l25.441,26.5l-0,60.5l-25.441,26.5l-25.441,-26.5l0,-60.5l25.441,-26.5Z" style="fill:#ff2c1c;stroke:#000;stroke-width:2.18px;"/>
            <path d="M60.5,4.5l17.441,26.5l-0,60.5l-17.441,26.5l-17.441,-26.5l0,-60.5l17.441,-26.5Z" style="fill:#ff2c1c;stroke:#000;stroke-width:2.18px;"/>
        </g>
        <g id="logo">
            <path d="M60.5,43.25l9.5,7.25l-0,22.5l-9.5,6l-9.5,-6l-0,-22.5l9.5,-7.25Z" style="fill:none;stroke:#fff;stroke-width:2.18px;"/>
            <path d="M70,50.5l-19,10.5l9.5,-5.25l-0,10.75l-9.5,-5.5l9.5,5.5l9.5,-5.5" style="fill:none;stroke:#fff;stroke-width:2.18px;"/>
            <path d="M51,50.5l19,10.5" style="fill:none;stroke:#fff;stroke-width:2.18px;"/>
        </g>
    </g>
</svg>
